<svg id="Layer_1" data-name="Layer 1" xmlns="http://www.w3.org/2000/svg" width="250" height="130" viewBox="0 0 250 130"><defs><style>.cls-1{fill:#0f8794;stroke:#099ead;stroke-linecap:round;stroke-miterlimit:10;stroke-width:5px;}</style></defs><title>Artboard 5</title><line class="cls-1" x1="149.22" y1="57.72" x2="149.22" y2="55.08"/><line class="cls-1" x1="161.32" y1="49.16" x2="161.32" y2="63.65"/><line class="cls-1" x1="173.42" y1="40.59" x2="173.61" y2="69.59"/><line class="cls-1" x1="185.51" y1="18.81" x2="185.61" y2="93.3"/><line class="cls-1" x1="246.61" y1="56.72" x2="246.61" y2="54.08"/><line class="cls-1" x1="234.51" y1="49.16" x2="234.51" y2="63.65"/><line class="cls-1" x1="222.41" y1="40.59" x2="222.22" y2="69.59"/><line class="cls-1" x1="210.31" y1="18.81" x2="210.22" y2="93.3"/><line class="cls-1" x1="197.61" y1="3.71" x2="198.61" y2="108.71"/><path d="M88.3,79.67c1.91,0,6.26.1,9,2.7A9.1,9.1,0,0,1,99.85,89a8.35,8.35,0,0,1-1.16,4.51,6.55,6.55,0,0,1-3,2.6,9.2,9.2,0,0,1,4.88,2.38,8.66,8.66,0,0,1,2.28,6.31,9.66,9.66,0,0,1-2.76,7.15c-2.92,2.81-7.15,3-9.33,3H77.49V79.67ZM85.55,94h1.32A7.54,7.54,0,0,0,91,93a3.74,3.74,0,0,0,1.44-3.13,3.64,3.64,0,0,0-1.38-3c-1.17-.9-2.76-.9-4.24-.9H85.55Zm0,14.62h2c2.06,0,4.55-.05,6-1.43a3.9,3.9,0,0,0,1.16-3,3.8,3.8,0,0,0-1.11-2.86c-1.43-1.32-4.19-1.32-5.83-1.32H85.55Z"/><path d="M140.29,84a18.81,18.81,0,0,1,0,26.6,18.85,18.85,0,0,1-13.67,5.2,19.44,19.44,0,0,1-13.78-5.2,18.06,18.06,0,0,1-5.51-13.14,19.74,19.74,0,0,1,5.46-13.41c2.38-2.38,6.78-5.19,13.83-5.19C132.13,78.87,136.74,80.57,140.29,84Zm-21.46,5.41a10.81,10.81,0,0,0-3.13,8,10.53,10.53,0,0,0,3.24,8,10.38,10.38,0,0,0,7.57,2.91,10.7,10.7,0,0,0,7.85-3,10.56,10.56,0,0,0,3.07-7.9,11.13,11.13,0,0,0-3.07-7.94,11.32,11.32,0,0,0-7.79-3A10.84,10.84,0,0,0,118.83,89.42Z"/><path d="M158.84,96.25l-11-16.58h9.81l5.83,10.06,5.83-10.06h9.8l-11,16.58,13,18.76h-9.8l-7.84-12.24L155.66,115h-9.8Z"/><path d="M3,73.92,8.34,40.57h6.4l8.3,20,8.3-20h6.4L43.1,73.92H35.39L32.74,54l-8.35,19.9h-2.7L13.34,54l-2.65,19.9Z"/><path d="M77,60.32c0,3.2-.4,7.15-3.7,10.55s-6.9,3.8-10.4,3.8-7.2-.5-10.4-3.8-3.7-7.35-3.7-10.55V40.57h7.7V60.12c0,1.45.1,3.9,1.75,5.6a6.15,6.15,0,0,0,4.65,1.75,6.15,6.15,0,0,0,4.65-1.75c1.65-1.7,1.75-4.15,1.75-5.6V40.57H77Z"/><path d="M101.54,48.72a8.12,8.12,0,0,0-5.6-2.4,4.17,4.17,0,0,0-3.25,1.15,3,3,0,0,0-.85,2.1,2.34,2.34,0,0,0,.75,1.85c.8.75,2,1,4.2,1.9l2.5,1a13.37,13.37,0,0,1,4.55,2.55,8.32,8.32,0,0,1,2.45,6.2,12,12,0,0,1-3,8.25c-3,3.1-7.25,3.4-9.45,3.4a14.13,14.13,0,0,1-6.6-1.4,21.21,21.21,0,0,1-4.9-3.65l4-5.5a20.42,20.42,0,0,0,3.1,2.55,7.75,7.75,0,0,0,4.2,1.2,5.32,5.32,0,0,0,3.5-1.15,3.45,3.45,0,0,0,1.2-2.7,2.94,2.94,0,0,0-1.15-2.4,16.29,16.29,0,0,0-3.9-1.85l-2.75-1a11.23,11.23,0,0,1-4.65-2.65,8.2,8.2,0,0,1-2-5.8,10.25,10.25,0,0,1,2.9-7.5c2.35-2.4,5.15-3,8.25-3a16.12,16.12,0,0,1,9.9,3.3Z"/><path d="M119.69,40.57V73.92H112V40.57Z"/><path d="M151.24,72.87a15.49,15.49,0,0,1-7.35,1.8c-6.15,0-10.3-2.1-13.1-4.85a17.87,17.87,0,0,1,0-25.2,17.7,17.7,0,0,1,12.45-4.8,19.85,19.85,0,0,1,8,1.85v8.9a10.57,10.57,0,0,0-7.8-3.55,9.36,9.36,0,0,0-6.8,2.6,10.68,10.68,0,0,0-3.15,7.7,9.75,9.75,0,0,0,10.1,10.15c2,0,4.7-.55,7.65-3.45Z"/></svg>
